<?xml version="1.0" encoding="utf-8"?>
<!-- Generator: Adobe Illustrator 18.0.0, SVG Export Plug-In . SVG Version: 6.00 Build 0)  -->
<!DOCTYPE svg PUBLIC "-//W3C//DTD SVG 1.1//EN" "http://www.w3.org/Graphics/SVG/1.1/DTD/svg11.dtd">
<svg version="1.1" id="Layer_1" xmlns="http://www.w3.org/2000/svg" xmlns:xlink="http://www.w3.org/1999/xlink" x="0px" y="0px"
	 viewBox="0 0 28 48" enable-background="new 0 0 28 48" xml:space="preserve">
<g>
	<path fill="#FFFFFF" d="M13.1,48C5.9,48,0,42.1,0,34.9V13.1C0,5.9,5.9,0,13.1,0h1.9C22.1,0,28,5.9,28,13.1v21.9
		C28,42.1,22.1,48,14.9,48H13.1z M13.1,1.3C6.6,1.3,1.3,6.6,1.3,13.1v21.9c0,6.5,5.3,11.7,11.7,11.7h1.9c6.5,0,11.7-5.3,11.7-11.7
		V13.1c0-6.5-5.3-11.7-11.7-11.7H13.1z"/>
	<path fill="#FFFFFF" d="M14,20.5c-0.8,0-1.5-0.7-1.5-1.5v-6.8c0-0.8,0.7-1.5,1.5-1.5s1.5,0.7,1.5,1.5V19
		C15.5,19.8,14.8,20.5,14,20.5z"/>
</g>
</svg>
